{"title":"August Alsina ft. Nicki Minaj - No Love (Remix) 2014","uid":11042775,"size":101950975,"categoryP":"video","categoryS":"music_videos","magnet":"?xt=urn:btih:3ce21aab89f008916448f8b8fe2058b144508518&amp;dn=August+Alsina+ft.+Nicki+Minaj+-+No+Love+%28Remix%29+2014&amp;tr=udp%3A%2F%2Ftracker.openbittorrent.com%3A80&amp;tr=udp%3A%2F%2Fopen.demonii.com%3A1337&amp;tr=udp%3A%2F%2Ftracker.coppersurfer.tk%3A6969&amp;tr=udp%3A%2F%2Fexodus.desync.com%3A6969","seeders":1,"leechers":0,"uploader":"MeRaDil","files":-1,"time":1410895228,"description":"AUGUST ALSINA ft.NICKI MINAJ - NO LOVE\n\n\nMPEG4 MUSIC VID\n\n &lt;a href=&quot;\nhttp://gifyu.com/images/AugustAlsina.png&quot; rel=&quot;nofollow&quot; target=&quot;_NEW&quot;&gt;\nhttp://gifyu.com/images/AugustAlsina.png&lt;/a&gt;\n\nGeneral\nFormat                                   : MPEG-4\nFormat profile                           : Base Media\nCodec ID                                 : isom\nFile size                                : 97.2 MiB\nDuration                                 : 4mn 47s\nOverall bit rate                         : 2 841 Kbps\nMovie name                               : No Love (Remix)\nMovie name/More                          : August Alsina &amp; Nicki Minaj\nPerformer                                : August Alsina ft. Nicki Minaj\nGenre                                    : HipHop\nContentType                              : Music Video\nRecorded date                            : 2014\nCopyright                                : August Alsina\nCover                                    : Yes\nComment                                  : Explicit\nRating                                   : Explicit\nMake                                     : MeRaDil\noday                                     : 15-09-2014  USA\nrelt                                     : USA - september 15 - 2014\nPart_ID                                  : No Love\n\nVideo\nID                                       : 1\nFormat                                   : AVC\nFormat/Info                              : Advanced Video Codec\nFormat profile                           : &lt;a class=&quot;__cf_email__&quot; href=&quot;/cdn-cgi/l/email-protection&quot; data-cfemail=&quot;c088a9a7a8808cf4eef0&quot;&gt;[email&amp;#160;protected]&lt;/a&gt;&lt;script data-cfhash='f9e31' type=&quot;text/javascript&quot;&gt;\n/* &lt;![CDATA[ */!function(){try{var t=&quot;currentScript&quot;in document?document.currentScript:function(){for(var t=document.getElementsByTagName(&quot;script&quot;),e=t.length;e--;)if(t[e].getAttribute(&quot;data-cfhash&quot;))return t[e]}();if(t&amp;&amp;t.previousSibling){var e,r,n,i,c=t.previousSibling,a=c.getAttribute(&quot;data-cfemail&quot;);if(a){for(e=&quot;&quot;,r=parseInt(a.substr(0,2),16),n=2;a.length-n;n+=2)i=parseInt(a.substr(n,2),16)^r,e+=String.fromCharCode(i);e=document.createTextNode(e),c.parentNode.replaceChild(e,c)}t.parentNode.removeChild(t);}}catch(u){}}()/* ]]&gt; */&lt;/script&gt;\nFormat settings, CABAC                   : Yes\nFormat settings, ReFrames                : 2 frames\nCodec ID                                 : avc1\nCodec ID/Info                            : Advanced Video Coding\nDuration                                 : 4mn 47s\nBit rate                                 : 2 578 Kbps\nWidth                                    : 1 920 pixels\nHeight                                   : 1 080 pixels\nDisplay aspect ratio                     : 16:9\nFrame rate mode                          : Variable\nFrame rate                               : 23.976 fps\nMinimum frame rate                       : 23.974 fps\nMaximum frame rate                       : 23.981 fps\nColor space                              : YUV\nChroma subsampling                       : 4:2:0\nBit depth                                : 8 bits\nScan type                                : Progressive\nBits/(Pixel*Frame)                       : 0.052\nStream size                              : 88.2 MiB (91%)\n\nAudio\nID                                       : 2\nFormat                                   : AAC\nFormat/Info                              : Advanced Audio Codec\nFormat profile                           : LC\nCodec ID                                 : 40\nDuration                                 : 4mn 47s\nBit rate mode                            : Constant\nBit rate                                 : 256 Kbps\nChannel(s)                               : 2 channels\nChannel positions                        : Front: L R\nSampling rate                            : 44.1 KHz\nCompression mode                         : Lossy\nStream size                              : 8.76 MiB (9%)\n\n\n","torrent":{"xt":"urn:btih:3ce21aab89f008916448f8b8fe2058b144508518","amp;dn":"August+Alsina+ft.+Nicki+Minaj+-+No+Love+%28Remix%29+2014","amp;tr":["udp%3A%2F%2Ftracker.openbittorrent.com%3A80","udp%3A%2F%2Fopen.demonii.com%3A1337","udp%3A%2F%2Ftracker.coppersurfer.tk%3A6969","udp%3A%2F%2Fexodus.desync.com%3A6969"],"infoHash":"3ce21aab89f008916448f8b8fe2058b144508518","infoHashBuffer":{"type":"Buffer","data":[60,226,26,171,137,240,8,145,100,72,248,184,254,32,88,177,68,80,133,24]},"announce":[],"urlList":[]}}